<svg width="66" height="66" viewBox="0 0 66 66" fill="none" xmlns="http://www.w3.org/2000/svg">
    <g clip-path="url(#xmrevbza8a)">
        <mask id="2kwo9sm5vb" style="mask-type:luminance" maskUnits="userSpaceOnUse" x="0" y="0" width="66" height="66">
            <path d="M65.46 0H0v65.46h65.46V0z" fill="#fff"/>
        </mask>
        <g mask="url(#2kwo9sm5vb)" fill="#fff">
            <path d="M17.37 47.8h-7.13v.49h7.13v-.49zM10.24 46.99v-.77h7.07l.03.77h-7.1zM10.24 45.39v-1.05h7.02l.02 1.05h-7.04zM10.24 43.51v-1.53h6.95l.03 1.53h-6.98zM10.24 41.18v-2.36h20.25l.15 2.36H18.38l-1.39-2.36.17 2.36h-6.92zM10.24 38v-2.92h12.09L24.12 38l-.17-2.92h6.69V38h-20.4zM10.24 34.26v-5.71l8.18.02 3.38 5.69H10.24zM30.63 28.55h-6.68v5.71h6.68v-5.71zM30.64 41.98v1.53h-10.7l-1.01-1.53h11.71zM30.64 44.34v1.05h-9.47l-.7-1.05h10.17zM30.64 46.22v.77h-8.42l-.51-.77h8.93zM30.64 47.8v.5h-7.55l-.33-.5h7.88zM39.52 47.8h-6.98v.49h6.98v-.49zM39.52 46.22h-6.98v.77h6.98v-.77zM39.52 44.34h-6.98v1.05h6.98v-1.05zM39.52 41.98h-6.98v1.53h6.98v-1.53zM39.52 38.82h-6.98v2.36h6.98v-2.36zM39.52 35.08h-6.98v2.93h6.98v-2.93zM39.52 28.55h-6.98v5.71h6.98v-5.71zM51.52 28.21h3.71v6H41.74c1.83-3.71 5.64-6.05 9.78-6zM49.23 35.08c-.87.73-1.37 1.8-1.39 2.93h-7c.05-1 .24-1.99.58-2.93h7.81zM47.91 38.82c.17.93.66 1.76 1.39 2.36h-8.07c-.23-.77-.37-1.56-.4-2.36h7.08zM55.23 41.98v1.53h-13c-.3-.49-.56-1-.77-1.53h13.77zM55.23 44.33v1.05H43.76c-.33-.33-.64-.68-.93-1.05h12.4zM55.23 46.22v.77h-9.45c-.38-.24-.75-.49-1.1-.77h10.55zM55.23 47.8v.43h-6.32s-.21.07-1.46-.43h7.78zM47.71 25.33c-.18-.27-.64-.93-1.57-2.25-.59-.79-1.14-1.61-1.64-2.46l1.15-.79c.08.18.17.36.27.53.09.18.26.31.46.34.14 0 .27-.08.31-.22V18.47h-1.58v-1.3h3.82l-.18-.24-.12-.17c-.21-.37-.31-.79-.29-1.21 0-.57.28-1.1.73-1.45.55-.39 1.22-.58 1.89-.55 1.13.05 2.18.57 2.9 1.44.5.62.91 1.32 1.2 2.06v8.2h-1.63v-6.78h-1.58v6.78h-1.62v-3.47h-.7l-.69-1.22h1.39v-2.09h-1.85v1.94c0 .31-.1.62-.3.86-.22.3-.53.51-.89.59l-.22.06.15.18.65.82c.37.41.76.89 1.19 1.44l-1.25.97zm3.09-10.5h-.26c-.28.03-.53.18-.69.41a1.1 1.1 0 0 0-.17.64c-.02.51.29.98.77 1.16.19.08.39.13.6.15h1.72c.453 0 .68-.05.68-.15a3.105 3.105 0 0 0-2.65-2.25v.04zM40.14 25.86c-.24-.19-.46-.4-.68-.62h-.52c-.38 0-.75-.12-1.06-.35a.934.934 0 0 1-.4-.8c0-.25.1-.49.29-.66.21-.19.48-.28.76-.27.16 0 .32.03.47.09.41.19.76.5 1 .88.03.05.09.07.15.07.09 0 .17-.02.25-.06h.06c.2-.08.37-.21.5-.38.24-.29.33-.68.25-1.05a.338.338 0 0 0-.09-.19.272.272 0 0 0-.21-.09h-.11c-.12.03-.24.08-.36.13l-.26.1c-.13.04-.27.06-.41.06-.23 0-.45-.05-.66-.14-.34-.15-.65-.38-.89-.66-.46-.42-.75-.99-.82-1.61 0-.26.11-.5.31-.66.18-.16.42-.25.67-.25h2.31v-.9h-4.71v6.78h-1.65v-6.81H32.8v6.78h-1.64v-3.11l-.19.07c-.08.02-.16.02-.24 0h-.38v.2c.1.67-.11 1.34-.58 1.83-.49.4-1.12.6-1.76.56-.7-.03-1.37-.32-1.87-.82a6.386 6.386 0 0 1-1.66-2.47l1.2-.5.23.47c.14.3.29.6.47.88.29.51.77.89 1.34 1.06.1.01.19.01.29 0 .21 0 .42-.06.58-.2.3-.33.37-.8.19-1.2-.2-.37-.58-.6-1-.6h-.67l-.4-.89c.22-.06.54-.18.76-.26.25-.07.46-.23.61-.44.09-.15.15-.32.15-.5 0-.15-.03-.3-.11-.42a.645.645 0 0 0-.54-.26c-.32.01-.63.13-.88.34-.18.15-.34.31-.49.49-.34-.78-.51-1.16-.61-1.34l.14-.12c.54-.41 1.19-.64 1.87-.64.59-.03 1.17.17 1.62.55.39.32.61.8.6 1.31.02.44-.14.87-.43 1.19l-.15.16.19.08.27.15c.2.15.43.24.67.27 0 0 .76-.09.76-.34v-3.58h9.85l-.24-.25c-.25-.27-.68-.74-.74-.84-.18-.28-.26-.61-.25-.94.05-.7.52-1.31 1.19-1.53.25-.08.52-.12.78-.12.23 0 .46.04.67.13.49.22.53.37.44 1.16h-.05l-.29-.09c-.19-.06-.39-.09-.59-.1-.17 0-.33.03-.48.11-.24.14-.4.38-.43.65-.04.29.05.57.24.79l.17.2.18.21c.13.14.24.24.35.35l.21.21v3.36h-3.16l.13.23s.23.41.31.51l.05.06c.13.2.32.35.54.44h.19c.18-.01.36-.06.53-.13h.09c.32-.12.66-.17 1-.17.21-.01.42.03.61.13.39.22.43.73.43 1.16 0 .92-.54 1.74-1.38 2.11l-.17.09-.24.11.22.15c.3.2 1.37.8 1.47.86l-.91 1-1.72-1.16zM14.3 26.98h-.14c-.22-.06-.37-.28-.51-.49l-.09-.16-.19-.27h.16c.1.02.2.02.3 0 .08-.02.15-.07.21-.13.07-.08.1-.2.07-.31a.385.385 0 0 0-.17-.29l-.31-.25-3.28-2.66v-5.24h12.34v8.07h-1.64V21.4h-2v.85c0 .12-.03.24-.09.35-.07.18-.24.29-.43.28-.12 0-.43-.13-1.11-.95-.68-.82-.8-1.14-.8-1.22 0-.45.21-.66.69-.66h3.76v-1.58h-5.54v2.67c.02.33-.13.64-.39.84-.29.26-.67.41-1.06.41l-1.26-1.06c.31.02.62-.03.92-.13.11-.06.17-.19.14-.31v-2.42h-1.9v3.59l.93.77 1.62 1.36.62.52c.29.21.48.53.52.88.04.25-.02.51-.17.72-.11.15-.24.27-.39.37-.24.17-.52.28-.81.3z"/>
            <path d="M19.95 17.18h3.68v1.29h-1.49"/>
        </g>
    </g>
    <defs>
        <clipPath id="xmrevbza8a">
            <path fill="#fff" d="M0 0h65.46v65.46H0z"/>
        </clipPath>
    </defs>
</svg>
