<svg width="118" height="34" viewBox="0 0 118 34" fill="none" xmlns="http://www.w3.org/2000/svg">
    <g clip-path="url(#rsp6zg5e4a)" fill="#fff">
        <path d="M3.58 29.534A14.177 14.177 0 0 1 0 19.382V.414h6.438v18.701a9.623 9.623 0 0 0 1.737 5.877 5.765 5.765 0 0 0 4.889 2.378 6.148 6.148 0 0 0 4.701-2.405 9.162 9.162 0 0 0 1.87-6.01V.415h6.439v19.074a14.259 14.259 0 0 1-3.5 10.098c-2.538 2.565-6.064 3.9-9.67 3.714-3.554.16-7-1.15-9.538-3.66M64.784.414H75.47c4.515-.213 8.896 1.416 12.209 4.489a15.714 15.714 0 0 1 4.594 11.754 15.688 15.688 0 0 1-4.488 11.675 16.752 16.752 0 0 1-12.208 4.461H64.89L64.784.414zM75.229 27.13a9.97 9.97 0 0 0 7.4-2.965 10.315 10.315 0 0 0 2.886-7.454 10.405 10.405 0 0 0-2.832-7.56c-1.844-1.977-4.462-3.045-7.16-2.992h-4.3V27.13h4.006zM102.559 6.105h-8.843V.415H118v5.69h-8.976v26.688h-6.465V6.105zM38.282.414h-7.48l10.259 16.11-12.904 16.242h7.908l9.163-11.3h.107l7.293 11.3h7.534L38.282.414zM59.655 5.116c0 2.779-2.271 5.05-5.076 5.023a5.028 5.028 0 0 1-5.023-5.076c0-2.779 2.271-5.023 5.076-5.023a4.95 4.95 0 0 1 3.553 1.496 5.145 5.145 0 0 1 1.47 3.58z"/>
    </g>
    <defs>
        <clipPath id="rsp6zg5e4a">
            <path fill="#fff" transform="translate(0 .04)" d="M0 0h118v33.26H0z"/>
        </clipPath>
    </defs>
</svg>
