<?xml version="1.0" encoding="UTF-8"?>
<svg id="Layer_1" data-name="Layer 1" xmlns="http://www.w3.org/2000/svg" version="1.1" viewBox="0 0 163.9 83.1">
  <defs>
    <style>
      .cls-1 {
        fill: #fff;
        stroke-width: 0px;
      }
    </style>
  </defs>
  <path class="cls-1" d="M9.3,20.5h9v32.3h15.8v7.6H9.3V20.5Z"/>
  <path class="cls-1" d="M73.7,40c0,13.1-7.9,21-19.6,21s-18.7-8.9-18.7-20.3,7.6-20.9,19.4-20.9,18.9,9.2,18.9,20.1ZM44.9,40.5c0,7.8,3.7,13.3,9.7,13.3s9.6-5.8,9.6-13.5-3.4-13.3-9.6-13.3-9.6,5.8-9.6,13.5Z"/>
  <path class="cls-1" d="M112.8,58.4c-2.8.9-8,2.2-13.3,2.2s-12.5-1.8-16.2-5.4c-3.7-3.4-5.7-8.6-5.6-14.5,0-13.2,9.7-20.8,22.7-20.8s9.1,1,11,1.9l-1.9,7.2c-2.2-.9-4.9-1.7-9.3-1.7-7.5,0-13.2,4.3-13.2,12.9s5.1,13.1,12.5,13.1,3.7-.2,4.4-.6v-8.3h-6.1v-7h14.8v21Z"/>
  <path class="cls-1" d="M156.3,40c0,13.1-7.9,21-19.6,21s-18.7-8.9-18.7-20.3,7.6-20.9,19.4-20.9,18.9,9.2,18.9,20.1ZM127.6,40.5c0,7.8,3.7,13.3,9.7,13.3s9.6-5.8,9.6-13.5-3.4-13.3-9.6-13.3-9.6,5.8-9.6,13.5Z"/>
</svg>