<?xml version="1.0" encoding="UTF-8"?>
<svg id="Layer_1" data-name="Layer 1" xmlns="http://www.w3.org/2000/svg" version="1.1" viewBox="0 0 118 34">
  <defs>
    <style>
      .cls-1 {
        fill: #fff;
        stroke-width: 0px;
      }
    </style>
  </defs>
  <path class="cls-1" d="M9.1,28.5c-2.3-2.5-3.2-5.9-3-9.2V2h5.9v17c0,1.9.5,3.8,1.6,5.3,1,1.4,2.7,2.2,4.4,2.2,1.7,0,3.3-.8,4.3-2.2,1.2-1.6,1.8-3.5,1.7-5.5V2h5.9v17.3c.2,3.4-1,6.7-3.2,9.2-2.3,2.3-5.5,3.6-8.8,3.4-3.2.2-6.4-1.1-8.7-3.3"/>
  <path class="cls-1" d="M64.9,2h9.7c4.1-.2,8.1,1.3,11.1,4.1,2.8,2.8,4.3,6.7,4.2,10.7.2,4-1.3,7.8-4.1,10.6-3,2.8-7,4.3-11.1,4.1h-9.7V2ZM74.4,26.3c2.5,0,5-.9,6.7-2.7,1.8-1.8,2.7-4.3,2.6-6.8,0-2.5-.8-5-2.6-6.9-1.7-1.8-4.1-2.8-6.5-2.7h-3.9v19.1h3.6Z"/>
  <polygon class="cls-1" points="99.3 7.1 91.2 7.1 91.2 2 113.3 2 113.3 7.1 105.1 7.1 105.1 31.4 99.3 31.4 99.3 7.1"/>
  <polygon class="cls-1" points="40.8 2 34 2 43.4 16.6 31.6 31.4 38.8 31.4 47.2 21.1 47.3 21.1 53.9 31.4 60.7 31.4 40.8 2"/>
  <path class="cls-1" d="M60.3,6.2c0,2.5-2.1,4.6-4.6,4.6-2.5,0-4.6-2.1-4.6-4.6,0-2.5,2.1-4.6,4.6-4.6,1.2,0,2.4.5,3.2,1.4.9.9,1.3,2,1.3,3.3"/>
</svg>